<svg width="153" height="40" viewBox="0 0 153 40" fill="none" xmlns="http://www.w3.org/2000/svg">
<path d="M23.1723 14.5125C23.4884 14.182 23.9266 13.988 24.3935 13.988C24.8533 13.988 25.2915 14.182 25.6219 14.5268C25.7081 14.613 25.7871 14.7064 25.859 14.7854C25.9165 14.8501 25.9739 14.9147 26.0242 14.965C26.1535 15.1015 26.29 15.2308 26.4193 15.3529C26.6923 15.5972 26.9868 15.8271 27.2885 16.021C27.504 16.1647 27.7339 16.294 27.9638 16.4089V12.1203H8.55359L11.3696 14.9363L0.119995 26.1787L5.52928 31.588L12.4399 24.6773L15.4068 27.6441L8.49612 34.5548L13.9054 39.9641L25.155 28.7145L27.971 31.5305V20.0439L27.9566 20.0367C27.8632 20.0151 27.7842 19.9792 27.7411 19.9577C27.6908 19.9433 27.6333 19.9217 27.5759 19.9002C27.4825 19.8643 27.3891 19.8283 27.3029 19.7996C27.0299 19.7062 26.7857 19.5913 26.563 19.4763C26.1176 19.2608 25.6794 19.0022 25.2627 18.7149C24.8317 18.4204 24.451 18.1258 24.1134 17.8097C23.9481 17.6589 23.7757 17.4937 23.589 17.2925L23.5315 17.2279C23.395 17.0842 23.237 16.919 23.0933 16.7322C22.7557 16.2796 22.7054 15.8486 22.7269 15.5685C22.7413 15.1733 22.9065 14.7998 23.1723 14.5125Z" fill="#419A1C"/>
<path d="M60.3973 38.8795H60.3902C59.5353 38.8579 56.238 38.7789 55.4406 38.7573C55.3616 38.7501 55.3616 38.6927 55.3544 38.6496C55.3544 38.5993 55.3472 38.5562 55.3472 38.5059C55.3329 38.2976 55.2251 36.8034 55.1892 36.2574C55.1892 36.2287 55.1892 36.006 55.1605 36.006C55.0168 35.9988 52.718 35.8336 52.5456 35.8192C52.4882 35.812 52.5025 35.7474 52.4953 35.6971C52.4594 35.1655 52.3229 33.2187 52.3158 33.1685C52.3158 33.1469 52.2942 33.1541 52.2727 33.1541C51.3962 33.0894 50.5342 33.032 49.665 32.9673C49.6506 32.9673 49.6506 32.9529 49.6506 32.9314C49.6291 32.6728 49.5069 30.9128 49.471 30.4099C49.471 30.374 49.4638 30.3453 49.4638 30.3094C49.4638 30.3094 46.9568 30.1298 46.8777 30.1226C46.8634 30.1226 46.8131 30.1226 46.8059 30.1154C46.7412 30.0508 43.8391 27.1557 43.8247 27.127C43.4296 27.2851 43.0776 27.4 42.6681 27.4934C40.9225 27.9172 39.0619 27.7735 37.4025 27.0911C35.621 26.3584 34.1196 25.0078 33.1929 23.3197C32.2087 21.5166 31.9214 19.3974 32.3524 17.3932L32.3596 17.3788C32.5607 16.5383 32.8553 15.7409 33.2935 14.9867C34.4069 13.0614 36.2747 11.6175 38.4226 11.0357C38.3148 11.8761 38.0634 12.6951 37.6683 13.4494C37.4672 13.8445 37.2229 14.218 36.9499 14.57C36.8422 14.7137 36.7272 14.8502 36.6051 14.9795C36.483 15.116 36.3393 15.2453 36.2244 15.3818C35.9299 15.7481 35.8365 16.251 35.9802 16.7035C36.1382 17.1849 36.5548 17.5584 37.0505 17.6518C37.3235 17.7021 37.6108 17.6733 37.8694 17.5656C38.1209 17.465 38.3076 17.2782 38.4872 17.0843C38.8536 16.6964 39.1912 16.2797 39.5001 15.8415C40.5346 14.3473 41.1452 12.5658 41.2601 10.7555C42.3018 10.8345 43.3434 11.1075 44.2916 11.5529C46.2456 12.4796 47.7972 14.1534 48.5803 16.1648C49.3345 18.1115 49.3345 20.3097 48.5946 22.2565C48.767 22.4289 60.2034 33.8653 60.2752 33.9371C60.2968 34.792 60.3183 35.6468 60.3399 36.4945C60.3542 37.2919 60.3758 38.0821 60.3973 38.8795Z" fill="#1895AB"/>
<path d="M40.589 9.9761C40.6106 11.851 40.0646 13.7044 39.0373 15.2704C38.9368 15.4213 38.829 15.5722 38.7213 15.7158C38.6279 15.8523 38.5201 16.0032 38.4052 16.1181C38.319 16.2043 38.2471 16.3049 38.1609 16.3983C38.0747 16.4917 37.9885 16.5851 37.9023 16.6713C37.773 16.8006 37.6222 16.9299 37.4354 16.9371C37.1193 16.9873 36.796 16.779 36.7027 16.4701C36.5159 16.0247 36.9685 15.6871 37.2199 15.3998C38.5991 13.8481 39.3103 11.772 39.2169 9.71031C39.1307 7.74199 38.319 5.84551 36.9469 4.43033C35.7472 3.19475 34.1668 2.36863 32.4715 2.08846C30.8193 1.81549 29.1024 2.05973 27.5938 2.79246C25.9416 3.59703 24.5839 4.97629 23.8152 6.64289C23.1687 8.02215 22.9388 9.581 23.1256 11.0968H21.7607C21.7607 11.068 21.7535 11.0537 21.7535 11.0465C21.7319 10.8166 21.7176 10.5795 21.7104 10.3497C21.696 9.88272 21.7176 9.41578 21.775 8.94884C21.9977 7.04518 22.8095 5.2349 24.081 3.79817C25.2447 2.49075 26.7605 1.51377 28.4415 1.0181C30.0434 0.543982 31.7603 0.500881 33.3838 0.888797C35.0576 1.29108 36.6021 2.15312 37.8161 3.36715C39.2169 4.76078 40.158 6.58542 40.4741 8.53219C40.5459 8.99194 40.589 9.45888 40.5962 9.92582C40.589 9.94737 40.589 9.96174 40.589 9.9761Z" fill="#282C36"/>
<path d="M31.1616 19.5481C30.824 19.5481 30.4936 19.5337 30.1559 19.4978C30.1559 19.4978 30.1559 19.4978 30.1487 19.4978C30.0554 19.4978 29.9548 19.469 29.8614 19.4618C29.7608 19.4475 29.6603 19.4331 29.5525 19.4187C29.3514 19.39 29.1502 19.3397 28.9491 19.2966H28.9419C28.7479 19.2463 28.5468 19.2032 28.3528 19.1386C28.3457 19.1386 28.3385 19.1314 28.3385 19.1314C28.3313 19.1314 28.3241 19.1314 28.3241 19.1314C28.2882 19.1242 28.2451 19.1099 28.2092 19.0955C28.1732 19.0955 28.1158 19.0596 28.0799 19.0524C28.0296 19.038 27.9793 19.0165 27.929 18.9949C27.8212 18.9518 27.7207 18.9087 27.6129 18.8728C27.3974 18.801 27.1891 18.7004 26.9879 18.5998C26.5785 18.3987 26.1906 18.1688 25.817 17.9174C25.4506 17.6659 25.0986 17.393 24.7754 17.0984C24.6102 16.9476 24.4521 16.7895 24.3013 16.6315C24.1576 16.4806 24.0067 16.3298 23.8846 16.1574C23.7769 16.0137 23.705 15.8485 23.7194 15.6689C23.7338 15.5108 23.7984 15.3528 23.9062 15.2379C24.0355 15.1014 24.2079 15.0295 24.3946 15.0295C24.5958 15.0295 24.7682 15.1157 24.9047 15.2594C25.0412 15.4031 25.1633 15.554 25.2998 15.6976C25.4435 15.8485 25.5943 15.9922 25.7524 16.1358C26.0613 16.416 26.3989 16.6746 26.7509 16.8973C28.0799 17.7521 29.6603 18.2119 31.2407 18.1975C31.1688 18.6429 31.1545 19.0955 31.1616 19.5481Z" fill="#282C36"/>
<path d="M60 19.6476V4H63.3592V10.0617H69.8706V4H73.2528V19.6476H69.8706V12.975H63.3592V19.6476H60ZM81.835 20C80.6385 20 79.584 19.7337 78.6713 19.2012C77.7587 18.6686 77.0492 17.9207 76.543 16.9574C76.0369 15.9941 75.7838 14.8781 75.7838 13.6094C75.7838 12.3407 76.033 11.2247 76.5315 10.2614C77.0301 9.29809 77.7357 8.55017 78.6483 8.01762C79.561 7.48507 80.6155 7.2188 81.812 7.2188C83.0084 7.2188 84.063 7.48115 84.9756 8.00587C85.8883 8.53059 86.5939 9.27068 87.0924 10.2261C87.5909 11.1816 87.8402 12.2859 87.8402 13.5389C87.8402 14.8076 87.5909 15.9315 87.0924 16.9104C86.5939 17.8894 85.8883 18.649 84.9756 19.1894C84.063 19.7298 83.0161 20 81.835 20ZM81.812 17.1336C82.6403 17.1336 83.3037 16.8086 83.8022 16.1586C84.3007 15.5086 84.55 14.651 84.55 13.5859C84.55 12.5208 84.3007 11.6711 83.8022 11.0367C83.3037 10.4023 82.6403 10.0852 81.812 10.0852C80.9837 10.0852 80.3203 10.4023 79.8217 11.0367C79.3232 11.6711 79.074 12.5208 79.074 13.5859C79.074 14.651 79.3232 15.5086 79.8217 16.1586C80.3203 16.8086 80.9837 17.1336 81.812 17.1336ZM94.3055 19.9765C93.0477 19.9765 92.0584 19.5849 91.3375 18.8018C90.6165 18.0186 90.2561 16.9457 90.2561 15.583V7.54772H93.5002V15.0426C93.5002 15.6848 93.6536 16.1821 93.9604 16.5345C94.2672 16.8869 94.6813 17.0631 95.2029 17.0631C95.7244 17.0631 96.2267 16.8908 96.7099 16.5463C97.1931 16.2017 97.5957 15.7396 97.9179 15.1601V7.54772H101.162V19.6476H97.9179V18.0499C97.473 18.6608 96.963 19.1346 96.3878 19.4714C95.8126 19.8081 95.1185 19.9765 94.3055 19.9765ZM107.581 20C106.83 20 106.105 19.9217 105.407 19.7651C104.709 19.6084 104.115 19.397 103.624 19.1307L103.923 16.3113C104.445 16.6402 105.02 16.9065 105.649 17.1101C106.278 17.3138 106.868 17.4156 107.42 17.4156C107.942 17.4156 108.379 17.3177 108.732 17.1219C109.085 16.9261 109.261 16.6402 109.261 16.2643C109.261 15.9667 109.138 15.7357 108.893 15.5712C108.647 15.4068 108.18 15.1992 107.489 14.9486L106.868 14.7137C106.209 14.463 105.672 14.2242 105.258 13.9971C104.843 13.7699 104.468 13.4214 104.13 12.9515C103.793 12.4816 103.624 11.8629 103.624 11.0954C103.624 9.87371 104.073 8.92217 104.97 8.24082C105.867 7.55947 107.037 7.2188 108.479 7.2188C109.614 7.2188 110.81 7.44591 112.068 7.90015L111.631 10.696C111.186 10.4298 110.684 10.2144 110.124 10.0499C109.564 9.88546 109.039 9.80323 108.548 9.80323C108.042 9.80323 107.639 9.88938 107.34 10.0617C107.041 10.234 106.891 10.4846 106.891 10.8135C106.891 11.1268 107.014 11.3617 107.259 11.5184C107.505 11.675 107.919 11.8551 108.502 12.0587C108.962 12.231 109.23 12.3328 109.307 12.3642C109.951 12.6304 110.488 12.8889 110.918 13.1395C111.347 13.3901 111.723 13.7621 112.045 14.2555C112.367 14.7489 112.528 15.3793 112.528 16.1468C112.528 17.4312 112.076 18.3945 111.171 19.0367C110.266 19.6789 109.069 20 107.581 20ZM120.42 20C118.503 20 116.996 19.4361 115.899 18.3084C114.802 17.1806 114.254 15.6143 114.254 13.6094C114.254 12.3093 114.492 11.1777 114.967 10.2144C115.443 9.2511 116.114 8.51101 116.98 7.99413C117.847 7.47724 118.863 7.2188 120.029 7.2188C121.747 7.2188 123.066 7.78267 123.986 8.91043C124.907 10.0382 125.367 11.6672 125.367 13.7974C125.367 14.1576 125.359 14.4239 125.344 14.5962H117.521C117.674 15.4263 118.027 16.0568 118.579 16.4875C119.132 16.9183 119.876 17.1336 120.811 17.1336C121.379 17.1336 121.969 17.0592 122.583 16.9104C123.196 16.7616 123.733 16.5619 124.193 16.3113L124.723 18.9662C124.109 19.2952 123.43 19.5497 122.686 19.7298C121.942 19.9099 121.187 20 120.42 20ZM117.498 12.1057H122.261C122.215 11.4322 121.985 10.8957 121.571 10.4963C121.156 10.0969 120.604 9.89721 119.914 9.89721C119.254 9.89721 118.714 10.093 118.292 10.4846C117.87 10.8762 117.605 11.4165 117.498 12.1057ZM136.733 20C135.629 20 134.774 19.7141 134.168 19.1424C133.562 18.5707 133.259 17.7602 133.259 16.7107V10.3906H131.418V7.54772H133.259V4.96329C134.348 4.77533 135.422 4.63436 136.48 4.54038V7.54772H139.471V10.3906H136.48V16.0999C136.48 16.4288 136.576 16.6794 136.768 16.8517C136.959 17.024 137.232 17.1101 137.584 17.1101C138.014 17.1101 138.505 17.0083 139.057 16.8047L139.77 19.2952C138.788 19.7651 137.776 20 136.733 20ZM146.995 20C145.798 20 144.744 19.7337 143.831 19.2012C142.918 18.6686 142.209 17.9207 141.703 16.9574C141.197 15.9941 140.944 14.8781 140.944 13.6094C140.944 12.3407 141.193 11.2247 141.691 10.2614C142.19 9.29809 142.895 8.55017 143.808 8.01762C144.721 7.48507 145.775 7.2188 146.972 7.2188C148.168 7.2188 149.223 7.48115 150.135 8.00587C151.048 8.53059 151.754 9.27068 152.252 10.2261C152.751 11.1816 153 12.2859 153 13.5389C153 14.8076 152.751 15.9315 152.252 16.9104C151.754 17.8894 151.048 18.649 150.135 19.1894C149.223 19.7298 148.176 20 146.995 20ZM146.972 17.1336C147.8 17.1336 148.464 16.8086 148.962 16.1586C149.461 15.5086 149.71 14.651 149.71 13.5859C149.71 12.5208 149.461 11.6711 148.962 11.0367C148.464 10.4023 147.8 10.0852 146.972 10.0852C146.143 10.0852 145.48 10.4023 144.982 11.0367C144.483 11.6711 144.234 12.5208 144.234 13.5859C144.234 14.651 144.483 15.5086 144.982 16.1586C145.48 16.8086 146.143 17.1336 146.972 17.1336Z" fill="#282C36"/>
<path d="M72 39.6916V26H75.1121V31.304H81.1444V26H84.2778V39.6916H81.1444V33.8532H75.1121V39.6916H72ZM92.2286 40C91.1202 40 90.1432 39.767 89.2977 39.301C88.4522 38.835 87.7949 38.1806 87.326 37.3377C86.857 36.4949 86.6226 35.5184 86.6226 34.4082C86.6226 33.2981 86.8535 32.3216 87.3153 31.4787C87.7772 30.6358 88.4308 29.9814 89.2764 29.5154C90.1219 29.0494 91.0989 28.8164 92.2073 28.8164C93.3157 28.8164 94.2927 29.046 95.1382 29.5051C95.9837 29.9643 96.6374 30.6118 97.0992 31.4479C97.5611 32.2839 97.792 33.2501 97.792 34.3465C97.792 35.4567 97.5611 36.44 97.0992 37.2966C96.6374 38.1532 95.9837 38.8179 95.1382 39.2907C94.2927 39.7636 93.3228 40 92.2286 40ZM92.2073 37.4919C92.9746 37.4919 93.5892 37.2075 94.0511 36.6388C94.5129 36.07 94.7438 35.3196 94.7438 34.3877C94.7438 33.4557 94.5129 32.7122 94.0511 32.1571C93.5892 31.6021 92.9746 31.3245 92.2073 31.3245C91.4399 31.3245 90.8253 31.6021 90.3635 32.1571C89.9016 32.7122 89.6707 33.4557 89.6707 34.3877C89.6707 35.3196 89.9016 36.07 90.3635 36.6388C90.8253 37.2075 91.4399 37.4919 92.2073 37.4919ZM100.03 39.6916V29.1043H102.972V30.7489C103.839 29.4606 105.011 28.8164 106.489 28.8164C107.327 28.8164 108.041 29.0049 108.631 29.3818C109.221 29.7587 109.651 30.2966 109.921 30.9956C110.418 30.2418 110.976 29.6902 111.594 29.3407C112.212 28.9912 112.919 28.8164 113.715 28.8164C114.894 28.8164 115.814 29.1557 116.475 29.8341C117.136 30.5125 117.466 31.4547 117.466 32.6608V39.6916H114.461V33.1131C114.461 32.5649 114.322 32.1366 114.045 31.8282C113.768 31.5198 113.395 31.3656 112.926 31.3656C112.344 31.3656 111.804 31.5986 111.306 32.0646C110.809 32.5306 110.439 33.1268 110.198 33.8532V39.6916H107.192V33.1131C107.192 32.5786 107.05 32.1537 106.766 31.8385C106.482 31.5232 106.105 31.3656 105.636 31.3656C105.11 31.3656 104.617 31.5541 104.155 31.931C103.693 32.3079 103.32 32.839 103.036 33.5242V39.6916H100.03ZM125.417 40C123.641 40 122.245 39.5066 121.229 38.5198C120.213 37.533 119.705 36.1625 119.705 34.4082C119.705 33.2707 119.925 32.2805 120.365 31.4376C120.806 30.5947 121.428 29.9471 122.23 29.4949C123.033 29.0426 123.975 28.8164 125.055 28.8164C126.646 28.8164 127.868 29.3098 128.721 30.2966C129.574 31.2834 130 32.7088 130 34.5727C130 34.8879 129.993 35.1209 129.979 35.2717H122.731C122.873 35.998 123.2 36.5497 123.712 36.9266C124.223 37.3035 124.913 37.4919 125.779 37.4919C126.305 37.4919 126.852 37.4268 127.421 37.2966C127.989 37.1664 128.487 36.9917 128.913 36.7724L129.403 39.0954C128.835 39.3833 128.206 39.606 127.517 39.7636C126.828 39.9212 126.128 40 125.417 40ZM122.71 33.0925H127.122C127.08 32.5032 126.867 32.0338 126.483 31.6843C126.099 31.3348 125.588 31.1601 124.948 31.1601C124.337 31.1601 123.836 31.3314 123.445 31.674C123.055 32.0166 122.81 32.4895 122.71 33.0925Z" fill="#282C36"/>
</svg>
