<svg width="442" height="114" viewBox="0 0 442 114" fill="none" xmlns="http://www.w3.org/2000/svg">
<g clip-path="url(#clip0_1_11)">
<path d="M66.5898 40.2336C67.5015 39.2805 68.7653 38.7211 70.112 38.7211C71.438 38.7211 72.7018 39.2805 73.6549 40.275C73.9035 40.5236 74.1314 40.793 74.3386 41.0209C74.5044 41.2073 74.6701 41.3938 74.8151 41.5388C75.1881 41.9325 75.5817 42.3054 75.9547 42.6576C76.742 43.3621 77.5915 44.0251 78.4616 44.5845C79.0832 44.9989 79.7462 45.3718 80.4092 45.7033V33.3342H24.4273L32.549 41.4559L0.103577 73.8807L15.7047 89.4819L35.6361 69.5505L44.1929 78.1073L24.2616 98.0387L39.8627 113.64L72.3082 81.1944L80.4299 89.3161V56.1869L80.3885 56.1662C80.1191 56.1041 79.8912 56.0005 79.7669 55.9383C79.6219 55.8969 79.4561 55.8347 79.2904 55.7726C79.021 55.669 78.7517 55.5654 78.5031 55.4825C77.7158 55.2132 77.0113 54.8817 76.3691 54.5502C75.0845 53.9286 73.8207 53.1827 72.619 52.354C71.3758 51.5045 70.2778 50.655 69.304 49.7434C68.8274 49.3083 68.3302 48.8318 67.7915 48.2517L67.6258 48.0652C67.2321 47.6508 66.7763 47.1743 66.3619 46.6356C65.3882 45.3303 65.2431 44.0872 65.3053 43.2792C65.3467 42.1397 65.8232 41.0623 66.5898 40.2336Z" fill="#419A1C"/>
<path d="M173.952 110.512H173.932C171.466 110.449 161.956 110.221 159.656 110.159C159.429 110.139 159.429 109.973 159.408 109.849C159.408 109.703 159.387 109.579 159.387 109.434C159.346 108.833 159.035 104.524 158.931 102.949C158.931 102.866 158.931 102.224 158.848 102.224C158.434 102.203 151.804 101.727 151.307 101.685C151.141 101.665 151.183 101.478 151.162 101.333C151.058 99.7999 150.665 94.1852 150.644 94.0401C150.644 93.978 150.582 93.9987 150.52 93.9987C147.992 93.8122 145.506 93.6465 142.999 93.46C142.957 93.46 142.957 93.4186 142.957 93.3564C142.895 92.6106 142.543 87.5345 142.439 86.0842C142.439 85.9806 142.419 85.8977 142.419 85.7941C142.419 85.7941 135.188 85.2761 134.96 85.2554C134.918 85.2554 134.773 85.2554 134.753 85.2347C134.566 85.0482 126.196 76.6986 126.154 76.6157C125.015 77.0716 124 77.403 122.819 77.6724C117.784 78.8948 112.418 78.4804 107.632 76.5121C102.494 74.3988 98.1634 70.5037 95.4907 65.6348C92.6523 60.4345 91.8235 54.3224 93.0666 48.5419L93.0874 48.5005C93.6675 46.0764 94.5169 43.7766 95.7808 41.6012C98.9922 36.0486 104.379 31.8841 110.574 30.2059C110.263 32.63 109.538 34.9919 108.398 37.1674C107.818 38.3069 107.114 39.3843 106.327 40.3995C106.016 40.8138 105.684 41.2075 105.332 41.5804C104.98 41.9741 104.566 42.347 104.234 42.7407C103.385 43.7973 103.115 45.2476 103.53 46.5529C103.985 47.9411 105.187 49.0185 106.617 49.2878C107.404 49.4328 108.233 49.3499 108.979 49.0392C109.704 48.7491 110.242 48.2104 110.76 47.651C111.817 46.5322 112.791 45.3305 113.682 44.0667C116.665 39.7572 118.426 34.619 118.758 29.3979C121.762 29.6258 124.766 30.4131 127.501 31.6976C133.137 34.3703 137.612 39.1978 139.87 44.999C142.046 50.6138 142.046 56.9537 139.912 62.5685C140.409 63.0657 173.393 96.0499 173.6 96.2571C173.662 98.7226 173.724 101.188 173.787 103.633C173.828 105.933 173.89 108.212 173.952 110.512Z" fill="#1895AB"/>
<path d="M116.822 27.1501C116.884 32.5577 115.31 37.9031 112.347 42.4198C112.057 42.8548 111.746 43.2899 111.435 43.7043C111.166 44.098 110.855 44.5331 110.524 44.8646C110.275 45.1132 110.068 45.4033 109.819 45.6726C109.571 45.9419 109.322 46.2113 109.073 46.4599C108.7 46.8328 108.265 47.2058 107.727 47.2265C106.815 47.3715 105.883 46.7707 105.613 45.8798C105.075 44.5952 106.38 43.6214 107.105 42.7927C111.083 38.3175 113.134 32.3298 112.865 26.3835C112.616 20.7066 110.275 15.2368 106.318 11.1553C102.858 7.59165 98.2997 5.209 93.4101 4.40097C88.6448 3.61366 83.693 4.3181 79.3421 6.43141C74.5768 8.7519 70.661 12.7299 68.4441 17.5366C66.5794 21.5146 65.9164 26.0106 66.4551 30.3822H62.5185C62.5185 30.2993 62.4978 30.2579 62.4978 30.2372C62.4356 29.5742 62.3942 28.8905 62.3735 28.2275C62.332 26.8807 62.3942 25.534 62.56 24.1873C63.2022 18.6969 65.5434 13.4758 69.2106 9.33202C72.5671 5.56122 76.9387 2.74348 81.7869 1.31389C86.4072 -0.0535417 91.3589 -0.177851 96.0413 0.940958C100.869 2.1012 105.323 4.58745 108.825 8.0889C112.865 12.1083 115.579 17.3709 116.491 22.9856C116.698 24.3116 116.822 25.6583 116.843 27.0051C116.822 27.0672 116.822 27.1087 116.822 27.1501Z" fill="#282C36"/>
<path d="M89.6323 54.7571C88.6585 54.7571 87.7054 54.7157 86.7317 54.6121C86.7317 54.6121 86.7317 54.6121 86.7109 54.6121C86.4416 54.6121 86.1515 54.5292 85.8822 54.5085C85.5921 54.467 85.3021 54.4256 84.9913 54.3842C84.4112 54.3013 83.831 54.1563 83.2509 54.0319H83.2302C82.6708 53.8869 82.0907 53.7626 81.5313 53.5761C81.5105 53.5761 81.4898 53.5554 81.4898 53.5554C81.4691 53.5554 81.4484 53.5554 81.4484 53.5554C81.3448 53.5347 81.2205 53.4933 81.1169 53.4518C81.0133 53.4518 80.8475 53.3482 80.744 53.3275C80.5989 53.2861 80.4539 53.2239 80.3089 53.1618C79.9981 53.0374 79.708 52.9131 79.3972 52.8095C78.7757 52.6023 78.1748 52.3123 77.5947 52.0222C76.4137 51.4421 75.2949 50.7791 74.2176 50.0539C73.1609 49.3288 72.1457 48.5415 71.2134 47.692C70.7368 47.2569 70.281 46.8011 69.8459 46.3453C69.4316 45.9102 68.9965 45.4751 68.6442 44.9779C68.3335 44.5635 68.1263 44.087 68.1677 43.569C68.2091 43.1132 68.3956 42.6574 68.7064 42.3259C69.0793 41.9322 69.5766 41.725 70.1153 41.725C70.6954 41.725 71.1926 41.9737 71.5863 42.388C71.9799 42.8024 72.3322 43.2375 72.7258 43.6519C73.1402 44.087 73.5753 44.5013 74.0311 44.9157C74.922 45.7237 75.8958 46.4696 76.911 47.1119C80.744 49.5774 85.3021 50.9034 89.8602 50.862C89.653 52.1465 89.6115 53.4518 89.6323 54.7571Z" fill="#282C36"/>
<path d="M174.056 54.7645V10.6154H183.734V27.7182H202.494V10.6154H212.239V54.7645H202.494V35.9381H183.734V54.7645H174.056ZM236.965 55.7588C233.518 55.7588 230.48 55.0075 227.85 53.505C225.221 52.0024 223.177 49.8922 221.718 47.1743C220.26 44.4564 219.531 41.3076 219.531 37.7279C219.531 34.1483 220.249 30.9995 221.685 28.2816C223.122 25.5637 225.154 23.4535 227.784 21.9509C230.413 20.4484 233.452 19.6971 236.899 19.6971C240.346 19.6971 243.384 20.4373 246.014 21.9178C248.643 23.3983 250.676 25.4864 252.112 28.1822C253.549 30.878 254.267 33.9936 254.267 37.5291C254.267 41.1087 253.549 44.2796 252.112 47.0417C250.676 49.8038 248.643 51.9471 246.014 53.4718C243.384 54.9965 240.368 55.7588 236.965 55.7588ZM236.899 47.6714C239.285 47.6714 241.197 46.7544 242.633 44.9204C244.069 43.0864 244.787 40.6668 244.787 37.6617C244.787 34.6565 244.069 32.259 242.633 30.4692C241.197 28.6794 239.285 27.7845 236.899 27.7845C234.512 27.7845 232.601 28.6794 231.165 30.4692C229.729 32.259 229.01 34.6565 229.01 37.6617C229.01 40.6668 229.729 43.0864 231.165 44.9204C232.601 46.7544 234.512 47.6714 236.899 47.6714ZM272.894 55.6925C269.27 55.6925 266.42 54.5877 264.343 52.378C262.266 50.1684 261.227 47.1411 261.227 43.2963V20.6251H270.574V41.7716C270.574 43.5836 271.016 44.9867 271.9 45.981C272.784 46.9754 273.977 47.4726 275.48 47.4726C276.982 47.4726 278.43 46.9864 279.822 46.0142C281.214 45.0419 282.374 43.7382 283.302 42.1031V20.6251H292.649V54.7645H283.302V50.2567C282.02 51.9803 280.551 53.3171 278.894 54.2673C277.236 55.2174 275.237 55.6925 272.894 55.6925ZM311.144 55.7588C308.978 55.7588 306.89 55.5378 304.879 55.0959C302.868 54.654 301.156 54.0574 299.742 53.3061L300.604 45.3513C302.106 46.2794 303.763 47.0306 305.575 47.6052C307.387 48.1797 309.089 48.4669 310.68 48.4669C312.182 48.4669 313.442 48.1907 314.458 47.6383C315.475 47.0859 315.983 46.2794 315.983 45.2187C315.983 44.379 315.629 43.7272 314.922 43.2632C314.215 42.7991 312.867 42.2136 310.878 41.5065L309.089 40.8436C307.188 40.1365 305.642 39.4625 304.448 38.8217C303.255 38.1809 302.172 37.1976 301.2 35.8718C300.228 34.546 299.742 32.8004 299.742 30.6349C299.742 27.1878 301.034 24.5031 303.62 22.5807C306.205 20.6583 309.575 19.6971 313.729 19.6971C316.999 19.6971 320.446 20.3379 324.07 21.6195L322.811 29.508C321.529 28.7567 320.082 28.149 318.469 27.685C316.856 27.221 315.342 26.989 313.928 26.989C312.469 26.989 311.309 27.232 310.448 27.7182C309.586 28.2043 309.155 28.9114 309.155 29.8394C309.155 30.7233 309.508 31.3862 310.216 31.8281C310.923 32.2701 312.116 32.7783 313.795 33.3528C315.121 33.8389 315.894 34.1262 316.115 34.2146C317.971 34.9659 319.518 35.6951 320.756 36.4021C321.993 37.1092 323.076 38.1588 324.004 39.5509C324.932 40.943 325.396 42.7218 325.396 44.8873C325.396 48.5111 324.092 51.229 321.485 53.0409C318.877 54.8529 315.43 55.7588 311.144 55.7588ZM348.133 55.7588C342.609 55.7588 338.267 54.1679 335.107 50.9859C331.948 47.804 330.368 43.3847 330.368 37.7279C330.368 34.0599 331.053 30.8669 332.423 28.149C333.793 25.4312 335.726 23.343 338.223 21.8846C340.72 20.4263 343.648 19.6971 347.006 19.6971C351.956 19.6971 355.757 21.288 358.408 24.47C361.06 27.6519 362.386 32.248 362.386 38.2583C362.386 39.2747 362.364 40.026 362.319 40.5121H339.781C340.223 42.8544 341.239 44.6332 342.83 45.8485C344.421 47.0638 346.565 47.6714 349.26 47.6714C350.896 47.6714 352.597 47.4615 354.365 47.0417C356.132 46.6218 357.679 46.0584 359.005 45.3513L360.53 52.8421C358.762 53.7701 356.806 54.4883 354.663 54.9965C352.52 55.5047 350.343 55.7588 348.133 55.7588ZM339.715 33.4854H353.437C353.304 31.5851 352.641 30.0715 351.448 28.9445C350.255 27.8176 348.664 27.2541 346.675 27.2541C344.775 27.2541 343.217 27.8066 342.002 28.9114C340.786 30.0162 340.024 31.5409 339.715 33.4854ZM395.133 55.7588C391.951 55.7588 389.487 54.9523 387.742 53.3392C385.996 51.7262 385.123 49.4392 385.123 46.4782V28.6462H379.82V20.6251H385.123V13.3332C388.261 12.8029 391.354 12.4052 394.404 12.14V20.6251H403.022V28.6462H394.404V44.7547C394.404 45.6827 394.68 46.3898 395.232 46.876C395.785 47.3621 396.569 47.6052 397.586 47.6052C398.823 47.6052 400.237 47.3179 401.828 46.7434L403.883 53.7701C401.055 55.0959 398.138 55.7588 395.133 55.7588ZM424.698 55.7588C421.251 55.7588 418.213 55.0075 415.583 53.505C412.954 52.0024 410.91 49.8922 409.452 47.1743C407.993 44.4564 407.264 41.3076 407.264 37.7279C407.264 34.1483 407.982 30.9995 409.418 28.2816C410.855 25.5637 412.888 23.4535 415.517 21.9509C418.147 20.4484 421.185 19.6971 424.632 19.6971C428.079 19.6971 431.117 20.4373 433.747 21.9178C436.376 23.3983 438.409 25.4864 439.846 28.1822C441.282 30.878 442 33.9936 442 37.5291C442 41.1087 441.282 44.2796 439.846 47.0417C438.409 49.8038 436.376 51.9471 433.747 53.4718C431.117 54.9965 428.101 55.7588 424.698 55.7588ZM424.632 47.6714C427.018 47.6714 428.93 46.7544 430.366 44.9204C431.802 43.0864 432.521 40.6668 432.521 37.6617C432.521 34.6565 431.802 32.259 430.366 30.4692C428.93 28.6794 427.018 27.7845 424.632 27.7845C422.246 27.7845 420.334 28.6794 418.898 30.4692C417.462 32.259 416.744 34.6565 416.744 37.6617C416.744 40.6668 417.462 43.0864 418.898 44.9204C420.334 46.7544 422.246 47.6714 424.632 47.6714Z" fill="#282C36"/>
<path d="M207.746 112.81V71.3615H216.833V87.4181H234.445V71.3615H243.594V112.81H234.445V95.1352H216.833V112.81H207.746ZM266.807 113.743C263.571 113.743 260.719 113.038 258.25 111.627C255.781 110.217 253.862 108.236 252.493 105.684C251.124 103.132 250.439 100.176 250.439 96.8156C250.439 93.4549 251.114 90.4987 252.462 87.9471C253.811 85.3955 255.719 83.4143 258.188 82.0037C260.656 80.593 263.509 79.8877 266.745 79.8877C269.981 79.8877 272.834 80.5826 275.302 81.9726C277.771 83.3625 279.679 85.3229 281.028 87.8538C282.376 90.3846 283.051 93.3097 283.051 96.6289C283.051 99.9895 282.376 102.966 281.028 105.56C279.679 108.153 277.771 110.165 275.302 111.596C272.834 113.028 270.002 113.743 266.807 113.743ZM266.745 106.151C268.985 106.151 270.78 105.29 272.128 103.568C273.477 101.846 274.151 99.5747 274.151 96.7533C274.151 93.932 273.477 91.6812 272.128 90.0009C270.78 88.3205 268.985 87.4803 266.745 87.4803C264.505 87.4803 262.71 88.3205 261.362 90.0009C260.013 91.6812 259.339 93.932 259.339 96.7533C259.339 99.5747 260.013 101.846 261.362 103.568C262.71 105.29 264.505 106.151 266.745 106.151ZM289.585 112.81V80.759H298.174V85.7378C300.705 81.8377 304.127 79.8877 308.442 79.8877C310.89 79.8877 312.975 80.4582 314.697 81.5991C316.419 82.7401 317.674 84.3686 318.462 86.4846C319.914 84.2026 321.543 82.5327 323.348 81.4747C325.152 80.4167 327.217 79.8877 329.54 79.8877C332.984 79.8877 335.67 80.9146 337.599 82.9683C339.529 85.0221 340.493 87.8745 340.493 91.5256V112.81H331.718V92.8948C331.718 91.2352 331.314 89.9386 330.505 89.0051C329.696 88.0716 328.606 87.6048 327.237 87.6048C325.536 87.6048 323.96 88.3101 322.507 89.7208C321.055 91.1315 319.977 92.9363 319.271 95.1352V112.81H310.496V92.8948C310.496 91.2767 310.081 89.9905 309.251 89.0362C308.422 88.0819 307.322 87.6048 305.953 87.6048C304.418 87.6048 302.976 88.1753 301.628 89.3163C300.279 90.4572 299.19 92.065 298.36 94.1395V112.81H289.585ZM363.707 113.743C358.521 113.743 354.444 112.25 351.478 109.263C348.511 106.275 347.028 102.126 347.028 96.8156C347.028 93.3719 347.671 90.3743 348.957 87.8226C350.243 85.271 352.059 83.3106 354.403 81.9414C356.747 80.5723 359.496 79.8877 362.649 79.8877C367.296 79.8877 370.864 81.3813 373.353 84.3686C375.843 87.3559 377.087 91.6708 377.087 97.3134C377.087 98.2677 377.067 98.973 377.025 99.4294H355.865C356.28 101.628 357.235 103.298 358.728 104.439C360.222 105.58 362.234 106.151 364.765 106.151C366.3 106.151 367.897 105.954 369.557 105.56C371.217 105.165 372.669 104.636 373.913 103.973L375.345 111.005C373.685 111.876 371.849 112.551 369.837 113.028C367.825 113.505 365.781 113.743 363.707 113.743ZM355.803 92.8325H368.686C368.561 91.0485 367.939 89.6274 366.819 88.5695C365.698 87.5115 364.205 86.9825 362.338 86.9825C360.554 86.9825 359.091 87.5011 357.95 88.5383C356.809 89.5756 356.094 91.007 355.803 92.8325Z" fill="#282C36"/>
</g>
<defs>
<clipPath id="clip0_1_11">
<rect width="442" height="114" fill="white"/>
</clipPath>
</defs>
</svg>
